<svg width="30" height="30" viewBox="0 0 30 30" fill="none" xmlns="http://www.w3.org/2000/svg"><path fill-rule="evenodd" clip-rule="evenodd" d="M30 15.0001C30 6.71625 23.2847 0 14.9999 0C6.71532 0 0 6.71625 0 15.0001C0 23.2847 6.71522 30 14.9999 30C23.2847 30 30 23.2848 30 15.0001ZM5 15C5 9.4823 9.4823 5 15 5C20.5177 5 25 9.4823 25 15C25 20.5177 20.5177 25 15 25C9.4823 25 5 20.5177 5 15ZM24.1304 15C24.1304 9.95225 20.0478 5.86957 15 5.86957C9.95225 5.86957 5.86957 9.95225 5.86957 15C5.86957 18.8345 8.22658 22.1098 11.5718 23.4638C11.5017 22.7332 11.4561 21.7519 11.6262 21.0233C11.7959 20.2941 12.7225 16.3765 12.7225 16.3765C12.7225 16.3765 12.4423 15.8162 12.4423 14.989C12.4423 13.6889 13.1958 12.7191 14.1338 12.7191C14.9316 12.7191 15.3167 13.3177 15.3167 14.0353C15.3167 14.5483 15.1082 15.2233 14.8888 15.9338C14.7649 16.3347 14.6376 16.7468 14.5423 17.1476C14.3219 18.0784 15.0089 18.8375 15.9265 18.8375C17.5879 18.8375 18.8646 17.0853 18.8646 14.5567C18.8646 12.3186 17.2564 10.7532 14.9601 10.7532C12.3006 10.7532 10.7396 12.7487 10.7396 14.8106C10.7396 15.6138 11.0495 16.475 11.436 16.9438C11.5122 17.0365 11.5232 17.1179 11.5005 17.2121C11.4575 17.3916 11.3823 17.6964 11.3229 17.937C11.2846 18.0923 11.2529 18.2209 11.2407 18.2719C11.2 18.4434 11.105 18.4791 10.9282 18.3967C9.7604 17.8531 9.03108 16.1462 9.03108 14.775C9.03108 11.8264 11.1725 9.11855 15.2072 9.11855C18.4502 9.11855 20.9706 11.4289 20.9706 14.5177C20.9706 17.7394 18.9383 20.332 16.1192 20.332C15.1719 20.332 14.2821 19.84 13.9776 19.2587C13.9776 19.2587 13.509 21.0434 13.395 21.481C13.2032 22.219 12.7203 23.1128 12.3463 23.7381C13.186 23.9922 14.0767 24.1304 15 24.1304C20.0478 24.1304 24.1304 20.0478 24.1304 15Z" fill="currentColor"/></svg>